<?xml version="1.0" encoding="utf-8"?>
<!-- Generator: Adobe Illustrator 21.0.2, SVG Export Plug-In . SVG Version: 6.00 Build 0)  -->
<svg version="1.1" id="Layer_1" xmlns="http://www.w3.org/2000/svg" xmlns:xlink="http://www.w3.org/1999/xlink" x="0px" y="0px"
	 viewBox="0 0 417 350.9" enable-background="new 0 0 417 350.9" xml:space="preserve">
<rect fill="#FFFFFF" width="417" height="350.9"/>
<g>
	<polygon points="75.4,206.3 75.4,15 0,15 0,20.6 26.5,20.6 26.5,298.5 0,298.5 0,304.1 100.2,304.1 100.2,298.5 75.4,298.5 
		75.4,211.9 75.9,211.9 75.9,206.3 	"/>
	<polygon points="206.9,298.5 115.1,180.2 160,137.7 185.6,137.7 185.6,132.1 122.7,132.1 122.7,137.7 152,137.7 77.4,206.3 
		75.9,206.3 75.9,211.9 77.4,211.9 145.1,298.5 116.3,298.5 116.3,304.1 222.5,304.1 222.5,298.5 	"/>
	<polyline points="199.7,211.8 267.4,298.5 238.6,298.5 238.6,304.1 344.8,304.1 344.8,298.5 329.2,298.5 237.4,180.2 282.3,137.7 
		307.9,137.7 307.9,132.1 245,132.1 245,137.7 274.3,137.7 197.1,208.6 	"/>
</g>
</svg>
